<svg width="16" height="14" viewBox="0 0 16 14" fill="none" xmlns="http://www.w3.org/2000/svg">
<path d="M9.42857 0.241553L15.7143 6.36241C15.8929 6.54458 16 6.76318 16 7.01822C16 7.23682 15.8929 7.45542 15.7143 7.63759L9.42857 13.7584C9.10714 14.0864 8.53572 14.0864 8.21429 13.722C7.89286 13.3941 7.89286 12.8112 8.25 12.4833L13 7.89263H0.857143C0.357143 7.89263 0 7.49185 0 7.01822C0 6.50815 0.357143 6.14381 0.857143 6.14381H13L8.25 1.51673C7.89286 1.18883 7.89286 0.60589 8.21429 0.277987C8.53572 -0.0863501 9.07143 -0.0863501 9.42857 0.241553Z" fill="#A37A56"/>
</svg>
