<svg width="12" height="12" viewBox="0 0 12 12" fill="none" xmlns="http://www.w3.org/2000/svg">
<path d="M12 0.9V9.9C12 10.425 11.5881 10.8 11.1014 10.8C10.5772 10.8 10.2028 10.425 10.2028 9.9V3.075L1.55382 11.7375C1.36661 11.925 1.14197 12 0.917317 12C0.655226 12 0.430577 11.925 0.280811 11.7375C-0.0936037 11.4 -0.0936037 10.8375 0.280811 10.5L8.9298 1.8H2.11544C1.59126 1.8 1.21685 1.425 1.21685 0.9C1.21685 0.4125 1.59126 0 2.11544 0H11.1014C11.5881 0 12 0.4125 12 0.9Z" fill="#0A0E29"/>
</svg>
