<svg fill="none" height="14" viewBox="0 0 16 14" width="16" xmlns="http://www.w3.org/2000/svg"><path d="m9.42857.241553 6.28573 6.120857c.1786.18217.2857.40077.2857.65581 0 .2186-.1071.4372-.2857.61937l-6.28573 6.12081c-.32143.328-.89285.328-1.21428-.0364-.32143-.3279-.32143-.9108.03571-1.2387l4.75-4.59067h-12.142857c-.5 0-.857143-.40078-.857143-.87441 0-.51007.357143-.87441.857143-.87441h12.142857l-4.75-4.62708c-.35714-.3279-.35714-.91084-.03571-1.238743.32143-.3643371.85714-.3643371 1.21428-.036434z" fill="#a37a56"/></svg>