<svg fill="none" height="15" viewBox="0 0 16 15" width="16" xmlns="http://www.w3.org/2000/svg"><path d="m6.57143 14.2584-6.285717-6.12081c-.178571-.18217-.28571392-.40077-.28571392-.65581 0-.2186.10714292-.4372.28571392-.61937l6.285717-6.120857c.32143-.327903.89286-.327903 1.21428.036433.32143.327904.32143.910844-.03571 1.238744l-4.75 4.59064h12.1429c.5 0 .8571.40078.8571.87441 0 .51007-.3571.87441-.8571.87441h-12.1429l4.75 4.62711c.35714.3279.35714.9108.03571 1.2387-.32142.3644-.85714.3644-1.21428.0364z" fill="#0a0e29"/></svg>