<svg fill="none" height="26" viewBox="0 0 24 26" width="24" xmlns="http://www.w3.org/2000/svg"><path d="m7.51042 19.0016h5.96138v-12.0167h-5.96138zm-3.00417-17.9781h-3.05111c-.797978 0-1.45514.65716-1.45514 1.45515v3.00416h6.00833v-3.00416c0-.79799-.7041-1.45515-1.50208-1.45515zm3.00417 22.4843c0 .798.65716 1.4552 1.50208 1.4552h2.9572c.798 0 1.5021-.7041 1.4552-1.5021v-3.0042h-5.96142zm-7.51042 0c0 .798.657162 1.4552 1.45514 1.4552h3.00417c.79798 0 1.45514-.7041 1.45514-1.4552l.09388-3.0041h-6.00833zm0-4.5062h6.00833v-12.0167h-6.00833zm19.6679-12.53304-5.7736 1.54902 3.098 11.54722 5.8206-1.549zm4.2716 15.91274-.7511-2.9103-5.8206 1.549.798 2.9103c.1878.798 1.0327 1.2674 1.8307 1.0327l2.9103-.7511c.798-.2347 1.2674-1.0327 1.0327-1.8306zm-5.3982-20.27817c-.2347-.79799-1.0796-1.267388-1.8776-1.03269l-2.8633.75104c-.1878.04694-.2816.14082-.4225.18777-.1877-.56329-.751-1.032688-1.4082-1.032688h-2.9572c-.79798 0-1.50208.704098-1.50208 1.502088v3.00416l5.72668.04694.2817 1.03269 5.7736-1.54903z" fill="#fbc825"/></svg>