<svg fill="none" height="18" viewBox="0 0 18 18" width="18" xmlns="http://www.w3.org/2000/svg"><path d="m5.60156 6.29297.03516-.10547c0 .03516-.03516.07031-.03516.10547zm12.30464 3.375c-.7382-1.65235-1.7226-5.30859-2.5664-6.53906-1.371-1.96875-3.621-3.12891-5.97652-3.12891h-2.60156c-3.72656 0-6.7500012 3.02344-6.7500012 6.75 0 1.93359.8085932 3.7617 2.2500012 5.0273v6.2227h8.99998l-.0351-2.25h2.25c1.2656 0 2.25-.9844 2.25-2.2148v-2.2852h1.0898c.3867 0 .7383-.1758.9141-.4922.2812-.3164.3164-.7383.1757-1.08983zm-6.082-2.35547h-1.793c.0704.21094.1055.38672.1055.5625 0 .94922-.77342 1.6875-1.68748 1.6875-.21094 0-.38672-.03516-.5625-.10547v1.79297h-2.25v-1.79297c-.21094.07031-.38672.10547-.5625.10547-.94922 0-1.6875-.73828-1.6875-1.6875 0-.03516 0-.03516 0-.07031-.77344-.28125-1.26563-1.08985-1.125-1.89844.14062-.80859.84375-1.40625 1.6875-1.40625 0-.91406.73828-1.6875 1.6875-1.6875.28125 0 .5625.10547.80859.24609.31641-.49218.84375-.80859 1.44141-.80859.5625 0 1.08984.31641 1.40625.80859.42187-.24609.94923-.28125 1.40623-.10547.4922.14063.8438.52735 1.0196.98438h.1054c.9141 0 1.6875.77344 1.6875 1.6875 0 .94922-.7734 1.6875-1.6875 1.6875z" fill="#a37a56"/></svg>