<svg fill="none" height="22" viewBox="0 0 24 22" width="24" xmlns="http://www.w3.org/2000/svg"><path d="m23.3333 7.98195-4.25.04166-3.875-7.499994c-.25-.4583338-.875-.666667-1.375-.416667-.4583.25-.6666.875-.4166 1.375001l3.4166 6.5h-9.7083l3.4167-6.5c.25-.500001.0416-1.125001-.4167-1.375001-.5-.25-1.125-.0416668-1.375.416667l-3.875 7.499994-4.208333-.04166c-.375 0-.666667.33333-.666667.66666v1.33334c0 .33335.291667.62495.666667.62495h.958333l1.875 8.5834c.29167 1.2916 1.375 2.125 2.625 2.125h11.7083c1.2084 0 2.3334-.8334 2.625-2.0834l1.875-8.5833h1c.3334 0 .6667-.2917.6667-.625v-1.37499c0-.33333-.3333-.66666-.6667-.66666zm-17.3333 4.33335c-.58333 0-1-.4584-1-1 0-.5834.41667-1 1-1 .54167 0 1 .4166 1 1 0 .5833-.45833 1-1 1zm12 0c-.5833 0-1-.4584-1-1 0-.5834.4167-1 1-1 .5417 0 1 .4166 1 1 0 .5833-.4583 1-1 1z" fill="#fbc825"/></svg>