<svg width="18" height="18" viewBox="0 0 18 18" fill="none" xmlns="http://www.w3.org/2000/svg">
<path d="M9 12.375C8.40234 12.375 7.80469 12.1992 7.3125 11.8125L0 6.11719V14.0625C0 15.0117 0.738281 15.75 1.6875 15.75H16.3125C17.2266 15.75 18 15.0117 18 14.0625V6.11719L10.6523 11.8125C10.1602 12.1992 9.5625 12.375 9 12.375ZM0.5625 5.13281L8.01562 10.9336C8.57812 11.3555 9.38672 11.3555 9.94922 10.9336L17.4023 5.13281C17.7539 4.85156 18 4.39453 18 3.9375C18 3.02344 17.2266 2.25 16.3125 2.25H1.6875C0.738281 2.25 0 3.02344 0 3.9375C0 4.39453 0.210938 4.85156 0.5625 5.13281Z" fill="#A37A56"/>
</svg>
