<svg fill="none" height="18" viewBox="0 0 18 18" width="18" xmlns="http://www.w3.org/2000/svg"><path d="m9 12.375c-.59766 0-1.19531-.1758-1.6875-.5625l-7.3125-5.69531v7.94531c0 .9492.738281 1.6875 1.6875 1.6875h14.625c.9141 0 1.6875-.7383 1.6875-1.6875v-7.94531l-7.3477 5.69531c-.4921.3867-1.0898.5625-1.6523.5625zm-8.4375-7.24219 7.45312 5.80079c.5625.4219 1.3711.4219 1.9336 0l7.45308-5.80079c.3516-.28125.5977-.73828.5977-1.19531 0-.91406-.7734-1.6875-1.6875-1.6875h-14.625c-.949219 0-1.6875.77344-1.6875 1.6875 0 .45703.210938.91406.5625 1.19531z" fill="#a37a56"/></svg>