<svg fill="none" height="24" viewBox="0 0 24 24" width="24" xmlns="http://www.w3.org/2000/svg"><path d="m23.9937 11.9796c0 .7511-.6259 1.3353-1.3353 1.3353h-1.3353v8.0118c0 .7511-.6259 1.3353-1.2936 1.3353h-4.0059c-.7511 0-1.3353-.5842-1.3353-1.2936v-4.0059c0-.7094-.5842-1.3353-1.3353-1.3353h-2.6706c-.7511 0-1.33529.6259-1.33529 1.2936v4.0059c-.04173.7511-.62592 1.3353-1.3353 1.3353h-4.00591c-.7511 0-1.3353-.5842-1.3353-1.3353v-8.0118h-1.3353c-.751106 0-1.3353-.5842-1.3353-1.3353 0-.3756.125185-.7094.417282-1.0015l10.682418-9.30541c.2921-.29209.6259-.33382.918-.33382s.6259.08345.8763.29209l10.6407 9.34714c.3338.2921.5007.6259.459 1.0015z" fill="#fbc825"/></svg>