<svg fill="none" height="24" viewBox="0 0 24 24" width="24" xmlns="http://www.w3.org/2000/svg"><path d="m12 0c-6.65625 0-12 5.39062-12 12 0 6.6562 5.34375 12 12 12 6.6094 0 12-5.3438 12-12 0-6.60938-5.3906-12-12-12zm0 6c.7969 0 1.5.70312 1.5 1.5 0 .84375-.7031 1.5-1.5 1.5-.8438 0-1.5-.65625-1.5-1.5 0-.79688.6562-1.5 1.5-1.5zm1.875 12h-3.75c-.65625 0-1.125-.4688-1.125-1.125 0-.6094.46875-1.125 1.125-1.125h.75v-3h-.375c-.65625 0-1.125-.4688-1.125-1.125 0-.6094.46875-1.125 1.125-1.125h1.5c.6094 0 1.125.5156 1.125 1.125v4.125h.75c.6094 0 1.125.5156 1.125 1.125 0 .6562-.5156 1.125-1.125 1.125z" fill="#a37a56"/></svg>