<svg fill="none" height="18" viewBox="0 0 18 18" width="18" xmlns="http://www.w3.org/2000/svg"><path d="m9.01758 4.93945c-2.25 0-4.04297 1.82813-4.04297 4.04297 0 2.24998 1.79297 4.04298 4.04297 4.04298 2.21482 0 4.04292-1.793 4.04292-4.04298 0-2.21484-1.8281-4.04297-4.04292-4.04297zm0 6.67965c-1.44141 0-2.63672-1.1601-2.63672-2.63668 0-1.4414 1.16016-2.60156 2.63672-2.60156 1.44142 0 2.60152 1.16016 2.60152 2.60156 0 1.47658-1.1601 2.63668-2.60152 2.63668zm5.13282-6.82027c0 .52734-.4219.94922-.9492.94922-.5274 0-.9492-.42188-.9492-.94922 0-.52735.4218-.94922.9492-.94922.5273 0 .9492.42187.9492.94922zm2.6719.94922c-.0703-1.26563-.3516-2.39063-1.2657-3.30469-.914-.91406-2.039-1.19531-3.3046-1.26563-1.3008-.07031-5.20317-.07031-6.50395 0-1.26563.07032-2.35547.35157-3.30469 1.26563-.91406.91406-1.19531 2.03906-1.26563 3.30469-.07031 1.30078-.07031 5.20315 0 6.50395.07032 1.2656.35157 2.3554 1.26563 3.3046.94922.9141 2.03906 1.1954 3.30469 1.2657 1.30078.0703 5.20315.0703 6.50395 0 1.2656-.0703 2.3906-.3516 3.3046-1.2657.9141-.9492 1.1954-2.039 1.2657-3.3046.0703-1.3008.0703-5.20317 0-6.50395zm-1.6875 7.87495c-.2461.7032-.8086 1.2305-1.4766 1.5118-1.0547.4218-3.5156.3164-4.64062.3164-1.16016 0-3.6211.1054-4.64063-.3164-.70312-.2813-1.23047-.8086-1.51172-1.5118-.42187-1.0195-.3164-3.4804-.3164-4.64058 0-1.125-.10547-3.58594.3164-4.64062.28125-.66797.8086-1.19532 1.51172-1.47657 1.01953-.42187 3.48047-.3164 4.64063-.3164 1.12502 0 3.58592-.10547 4.64062.3164.668.2461 1.1953.8086 1.4766 1.47657.4218 1.05468.3164 3.51562.3164 4.64062 0 1.16018.1054 3.62108-.3164 4.64058z" fill="#a37a56"/></svg>