<svg fill="none" height="20" viewBox="0 0 120 20" width="120" xmlns="http://www.w3.org/2000/svg"><g fill="#fbc825"><path d="m5.72078.898876v12.134824c0 1.9101-.14447 2.5843-.31782 3.0056-.49118 1.1798-1.44464 1.2641-1.93582 1.2641-1.04014 0-1.64689-.3652-2.0225-.6742l-1.44464 2.4157c.577856.3652 1.70468.9551 3.40935.9551 2.62925 0 3.92943-1.5169 4.53617-2.6966.66454-1.2922.72232-2.7809.72232-4.2697v-12.134824z"/><path d="m26.7347.561799c-5.7786 0-10.0258 4.213481-10.0258 9.719101 0 5.5056 4.2472 9.7191 10.0258 9.7191 5.7785 0 10.0258-4.2135 10.0258-9.7191 0-5.50562-4.2473-9.719101-10.0258-9.719101zm0 16.797701c-4.1317 0-7.0788-2.9213-7.0788-7.0786s2.9471-7.07865 7.0788-7.07865c4.1316 0 7.0787 2.92135 7.0787 7.07865s-2.9471 7.0786-7.0787 7.0786z"/><path d="m48.2456 19.6348h2.9471v-8.0899l6.3275-10.646024h-3.3516l-4.4495 7.500004-4.4495-7.500004h-3.3515l6.3275 10.646024z"/><path d="m64.34 19.6348h3.9005c3.4383 0 5.2874-.7022 7.0499-2.1629 1.3868-1.1517 3.3805-3.2584 3.3805-7.191 0-3.37079-1.5314-5.75843-3.2938-7.19101-2.427-1.99438-5.1718-2.191014-7.1077-2.191014h-3.9294zm2.1381-16.76963h1.878c4.8829 0 8.1189 2.92135 8.1189 7.41573 0 2.6685-1.1557 4.5225-2.6004 5.7022-1.878 1.5169-3.9872 1.6854-5.5185 1.6854h-1.878z"/><path d="m99.8157 19.6348h2.3693l-8.6391-19.6348-8.8701 19.6348h2.3692l2.3115-5.2809h8.2055zm-9.6214-7.2472 3.2938-7.49996 3.236 7.49996z"/><path d="m111.477 19.6348h2.138v-8.0618l6.385-10.674124h-2.485l-4.969 8.370784-4.912-8.370784h-2.485l6.328 10.674124z"/></g></svg>