<svg fill="none" height="24" viewBox="0 0 24 24" width="24" xmlns="http://www.w3.org/2000/svg"><path d="m23.1094 7.64062c-1.1719-.89062-2.1094-1.64062-7.6875-5.67187-.7969-.5625-2.3438-1.96875-3.4219-1.96875h-.0469c-1.0781 0-2.62498 1.40625-3.42185 1.96875-5.57813 4.03125-6.51563 4.73437-7.6875 5.67187-.5625.42188-.84375 1.07813-.84375 1.78126v12.32812c0 1.2656.984375 2.25 2.25 2.25h19.5c1.2188 0 2.25-.9844 2.25-2.2031v-12.37502c0-.70313-.3281-1.35938-.8906-1.78126zm-8.9063 9.60938c-.6562.5156-1.4531.75-2.2031.75-.7969 0-1.5938-.2344-2.25-.75l-6.75-5.2969v-2.15622c.98438-.79688 2.15625-1.6875 7.3125-5.4375.1406-.09376.3281-.23438.5156-.375.2344-.1875.75-.60938 1.1719-.84376.375.23438.8906.65626 1.125.84376.1875.14062.375.28124.5156.42187 5.1094 3.70313 6.3282 4.59375 7.3594 5.39063v2.15622z" fill="#a37a56"/></svg>