<svg width="24" height="24" viewBox="0 0 24 24" fill="none" xmlns="http://www.w3.org/2000/svg">
<path d="M23.1094 7.64062C21.9375 6.75 21 6 15.4219 1.96875C14.625 1.40625 13.0781 0 12 0H11.9531C10.875 0 9.32812 1.40625 8.53125 1.96875C2.95312 6 2.01562 6.70312 0.84375 7.64062C0.28125 8.0625 0 8.71875 0 9.42188V21.75C0 23.0156 0.984375 24 2.25 24H21.75C22.9688 24 24 23.0156 24 21.7969V9.42188C24 8.71875 23.6719 8.0625 23.1094 7.64062ZM14.2031 17.25C13.5469 17.7656 12.75 18 12 18C11.2031 18 10.4062 17.7656 9.75 17.25L3 11.9531V9.79688C3.98438 9 5.15625 8.10938 10.3125 4.35938C10.4531 4.26562 10.6406 4.125 10.8281 3.98438C11.0625 3.79688 11.5781 3.375 12 3.14062C12.375 3.375 12.8906 3.79688 13.125 3.98438C13.3125 4.125 13.5 4.26562 13.6406 4.40625C18.75 8.10938 19.9688 9 21 9.79688V11.9531L14.2031 17.25Z" fill="#A37A56"/>
</svg>
