<svg width="24" height="18" viewBox="0 0 24 18" fill="none" xmlns="http://www.w3.org/2000/svg">
<path d="M22.7143 15.6522H1.23214C0.535714 15.6522 0 16.1902 0 16.8261C0 17.5109 0.535714 18 1.23214 18H22.7143C23.4107 18 24 17.5109 24 16.875C24 16.1902 23.4107 15.6522 22.7143 15.6522ZM22.7143 0H1.23214C0.535714 0 0 0.538043 0 1.17391C0 1.76087 0.535714 2.34783 1.23214 2.34783H22.7143C23.4107 2.34783 24 1.8587 24 1.22283C24 0.63587 23.4107 0 22.7143 0ZM22.7143 7.82609H1.23214C0.535714 7.82609 0 8.36413 0 9C0 9.68478 0.535714 10.1739 1.23214 10.1739H22.7143C23.4107 10.1739 24 9.68478 24 9C24 8.36413 23.4107 7.82609 22.7143 7.82609Z" fill="#A37A56"/>
</svg>
