<svg fill="none" height="24" viewBox="0 0 24 24" width="24" xmlns="http://www.w3.org/2000/svg"><path d="m12 0c-6.65625 0-12 5.39062-12 12 0 6.6562 5.34375 12 12 12 6.6094 0 12-5.3438 12-12 0-6.60938-5.3906-12-12-12zm0 18.75c-.8438 0-1.5-.6562-1.5-1.5s.6094-1.5 1.5-1.5c.7969 0 1.5.6562 1.5 1.5s-.7031 1.5-1.5 1.5zm3.2344-6.6562-2.1094 1.3124v.0938c0 .6094-.5156 1.125-1.125 1.125s-1.125-.5156-1.125-1.125v-.75c0-.375.1875-.75.5625-.9844l2.6719-1.5937c.3281-.18752.5156-.51565.5156-.89065 0-.5625-.5156-1.03125-1.0781-1.03125h-2.3907c-.6093 0-1.0312.46875-1.0312 1.03125 0 .60937-.51562 1.12495-1.125 1.12495s-1.125-.51558-1.125-1.12495c0-1.82813 1.45312-3.28125 3.2344-3.28125h2.3906c1.9219 0 3.375 1.45312 3.375 3.28125 0 1.12495-.6094 2.20315-1.6406 2.81255z" fill="#fbc825"/></svg>