<svg fill="none" height="24" viewBox="0 0 24 24" width="24" xmlns="http://www.w3.org/2000/svg"><path d="m15.0938 4.48828 2.5781-2.57812c.4219-.42188.4219-1.125004 0-1.546879-.4688-.46875-1.1719-.46875-1.5938 0l-4.0781 4.031249-4.07812-4.031249c-.46876-.46875-1.17188-.46875-1.59376 0-.46874.421875-.46874 1.124999 0 1.546879l2.57813 2.57812h-5.90625c-1.6875 0-3 1.35938-3 3v13.45312c0 1.7344 1.3125 3.0469 3 3.0469h18c1.6406 0 3-1.3125 3-2.9531v-13.54692c0-1.64062-1.3594-2.95312-3-2.95312zm5.9062 5.25c.6094 0 1.125.51562 1.125 1.12502s-.5156 1.125-1.125 1.125c-.6562 0-1.125-.5156-1.125-1.125s.4688-1.12502 1.125-1.12502zm-3 8.25002c0 1.6875-1.3594 3-3 3h-9c-1.6875 0-3-1.3125-3-3v-7.5c0-1.64064 1.3125-3.00002 3-3.00002l8.9531.04688c1.6407 0 3 1.3125 3 2.95314v7.5zm1.875-3.375c0-.6094.4688-1.125 1.125-1.125.6094 0 1.125.5156 1.125 1.125 0 .6562-.5156 1.125-1.125 1.125-.6562 0-1.125-.4688-1.125-1.125z" fill="#a37a56"/></svg>