<svg fill="none" height="18" viewBox="0 0 18 18" width="18" xmlns="http://www.w3.org/2000/svg"><path d="m16.1523 5.32617v.49219c0 4.88674-3.6914 10.47654-10.47652 10.47654-2.10937 0-4.04297-.5976-5.660155-1.6523.28125.0351.5625.0703.878906.0703 1.722659 0 3.304689-.5977 4.570309-1.582-1.61718-.0352-2.98828-1.0899-3.44531-2.5664.24609.0351.45703.0703.70313.0703.3164 0 .66796-.0703.94922-.1407-1.6875-.3515-2.95313-1.82808-2.95313-3.62105v-.03516c.49219.28125 1.08984.42188 1.6875.45703-1.01953-.66797-1.652344-1.79297-1.652344-3.05859 0-.70313.175782-1.33594.492184-1.86328 1.82813 2.21484 4.57032 3.6914 7.62891 3.86718-.07031-.28125-.10547-.5625-.10547-.84375 0-2.03906 1.65237-3.6914 3.69137-3.6914 1.0547 0 2.0039.42187 2.7071 1.16015.8086-.17578 1.6172-.49218 2.3203-.91406-.2813.87891-.8438 1.58203-1.6172 2.03906.7383-.07031 1.4766-.28125 2.1094-.5625-.4922.73829-1.125 1.3711-1.8282 1.89844z" fill="#a37a56"/></svg>